<svg xmlns="http://www.w3.org/2000/svg" xmlns:xlink="http://www.w3.org/1999/xlink" contentStyleType="text/css" height="948px" preserveAspectRatio="none" style="width:861px;height:948px;background:#FFFFFF;" version="1.1" viewBox="0 0 861 948" width="861px" zoomAndPan="magnify"><title>cobol_tools/TESTXX.cob</title><defs/><g><text fill="#000000" font-family="sans-serif" font-size="14" font-weight="bold" lengthAdjust="spacing" textLength="165.6826" x="346.234" y="34.5332">cobol_tools/TESTXX.cob</text><ellipse cx="516.936" cy="58.6094" fill="#E6F7FF" rx="10" ry="10" style="stroke:#222222;stroke-width:1;"/><rect fill="#FFE6E6" height="859.3049" rx="5" ry="5" style="stroke:#FF0000;stroke-width:1.5;" width="839.1506" x="11" y="78.6094"/><path d="M80.9238,78.6094 L80.9238,87.708 L70.9238,97.708 L11,97.708 " fill="none" style="stroke:#FF0000;stroke-width:1.5;"/><text fill="#006600" font-family="arial" font-size="14" lengthAdjust="spacing" textLength="59.9238" x="14" y="92.7412">Partie 1/1</text><path d="M569.2729,119.1331 L569.2729,127.6074 L549.2729,131.6074 L569.2729,135.6074 L569.2729,144.0818 A0,0 0 0 0 569.2729,144.0818 L619.8911,144.0818 A0,0 0 0 0 619.8911,144.0818 L619.8911,129.1331 L609.8911,119.1331 L569.2729,119.1331 A0,0 0 0 0 569.2729,119.1331 " fill="#CCCCFF" style="stroke:#000080;stroke-width:0.5;"/><path d="M609.8911,119.1331 L609.8911,129.1331 L619.8911,129.1331 L609.8911,119.1331 " fill="#CCCCFF" style="stroke:#000080;stroke-width:0.5;"/><text fill="#0000FF" font-family="arial" font-size="13" lengthAdjust="spacing" textLength="10.8291" x="575.2729" y="136.3269">(l:</text><a href="http://gitlab.altair.recouv/999/cobol_tools/-/tree/livraison/TESTXX.cob#L25" target="_top" title="http://gitlab.altair.recouv/999/cobol_tools/-/tree/livraison/TESTXX.cob#L25" xlink:actuate="onRequest" xlink:href="http://gitlab.altair.recouv/999/cobol_tools/-/tree/livraison/TESTXX.cob#L25" xlink:show="new" xlink:title="http://gitlab.altair.recouv/999/cobol_tools/-/tree/livraison/TESTXX.cob#L25" xlink:type="simple"><text fill="#0000FF" font-family="arial" font-size="13" lengthAdjust="spacing" text-decoration="underline" textLength="14.46" x="586.1021" y="136.3269">25</text></a><text fill="#0000FF" font-family="arial" font-size="13" lengthAdjust="spacing" textLength="4.3291" x="600.562" y="136.3269">)</text><polygon fill="#98FB98" points="494.5991,114.708,549.2729,114.708,539.2729,131.6074,549.2729,148.5068,494.5991,148.5068" style="stroke:#181818;stroke-width:0.5;"/><text fill="#003366" font-family="arial" font-size="12" lengthAdjust="spacing" textLength="24.6738" x="504.5991" y="135.9639">DEB</text><path d="M659.6147,172.9319 L659.6147,181.4063 L639.6147,185.4063 L659.6147,189.4063 L659.6147,197.8806 A0,0 0 0 0 659.6147,197.8806 L710.2329,197.8806 A0,0 0 0 0 710.2329,197.8806 L710.2329,182.9319 L700.2329,172.9319 L659.6147,172.9319 A0,0 0 0 0 659.6147,172.9319 " fill="#CCCCFF" style="stroke:#000080;stroke-width:0.5;"/><path d="M700.2329,172.9319 L700.2329,182.9319 L710.2329,182.9319 L700.2329,172.9319 " fill="#CCCCFF" style="stroke:#000080;stroke-width:0.5;"/><text fill="#0000FF" font-family="arial" font-size="13" lengthAdjust="spacing" textLength="10.8291" x="665.6147" y="190.1257">(l:</text><a href="http://gitlab.altair.recouv/999/cobol_tools/-/tree/livraison/TESTXX.cob#L26" target="_top" title="http://gitlab.altair.recouv/999/cobol_tools/-/tree/livraison/TESTXX.cob#L26" xlink:actuate="onRequest" xlink:href="http://gitlab.altair.recouv/999/cobol_tools/-/tree/livraison/TESTXX.cob#L26" xlink:show="new" xlink:title="http://gitlab.altair.recouv/999/cobol_tools/-/tree/livraison/TESTXX.cob#L26" xlink:type="simple"><text fill="#0000FF" font-family="arial" font-size="13" lengthAdjust="spacing" text-decoration="underline" textLength="14.46" x="676.4438" y="190.1257">26</text></a><text fill="#0000FF" font-family="arial" font-size="13" lengthAdjust="spacing" textLength="4.3291" x="690.9038" y="190.1257">)</text><rect fill="#E6F7FF" height="33.7988" rx="12.5" ry="12.5" style="stroke:#181818;stroke-width:0.5;" width="245.3574" x="394.2573" y="168.5068"/><text fill="#003366" font-family="arial" font-size="12" lengthAdjust="spacing" textLength="225.3574" x="404.2573" y="189.7627">MOVE DAT1A-R TO LK-AAMMJJ6-ENT-2</text><path d="M706.5103,226.7307 L706.5103,235.2051 L686.5103,239.2051 L706.5103,243.2051 L706.5103,251.6794 A0,0 0 0 0 706.5103,251.6794 L757.1284,251.6794 A0,0 0 0 0 757.1284,251.6794 L757.1284,236.7307 L747.1284,226.7307 L706.5103,226.7307 A0,0 0 0 0 706.5103,226.7307 " fill="#CCCCFF" style="stroke:#000080;stroke-width:0.5;"/><path d="M747.1284,226.7307 L747.1284,236.7307 L757.1284,236.7307 L747.1284,226.7307 " fill="#CCCCFF" style="stroke:#000080;stroke-width:0.5;"/><text fill="#0000FF" font-family="arial" font-size="13" lengthAdjust="spacing" textLength="10.8291" x="712.5103" y="243.9246">(l:</text><a href="http://gitlab.altair.recouv/999/cobol_tools/-/tree/livraison/TESTXX.cob#L27" target="_top" title="http://gitlab.altair.recouv/999/cobol_tools/-/tree/livraison/TESTXX.cob#L27" xlink:actuate="onRequest" xlink:href="http://gitlab.altair.recouv/999/cobol_tools/-/tree/livraison/TESTXX.cob#L27" xlink:show="new" xlink:title="http://gitlab.altair.recouv/999/cobol_tools/-/tree/livraison/TESTXX.cob#L27" xlink:type="simple"><text fill="#0000FF" font-family="arial" font-size="13" lengthAdjust="spacing" text-decoration="underline" textLength="14.46" x="723.3394" y="243.9246">27</text></a><text fill="#0000FF" font-family="arial" font-size="13" lengthAdjust="spacing" textLength="4.3291" x="737.7993" y="243.9246">)</text><rect fill="#FFC0CB" height="33.7988" style="stroke:#181818;stroke-width:0.5;" width="339.1484" x="347.3618" y="222.3057"/><line style="stroke:#181818;stroke-width:0.5;" x1="352.3618" x2="352.3618" y1="222.3057" y2="256.1045"/><line style="stroke:#181818;stroke-width:0.5;" x1="681.5103" x2="681.5103" y1="222.3057" y2="256.1045"/><text fill="#003366" font-family="arial" font-size="12" lengthAdjust="spacing" textLength="319.1484" x="357.3618" y="243.5615">APPEL-SP2000-DEB -&gt; APPEL-SP2000-FIN - voir ligne :46</text><path d="M655.0042,266.1045 L655.0042,291.0532 L705.6223,291.0532 L705.6223,276.1045 L695.6223,266.1045 L655.0042,266.1045 " fill="#CCCCFF" style="stroke:#000080;stroke-width:0.5;"/><path d="M695.6223,266.1045 L695.6223,276.1045 L705.6223,276.1045 L695.6223,266.1045 " fill="#CCCCFF" style="stroke:#000080;stroke-width:0.5;"/><text fill="#0000FF" font-family="arial" font-size="13" lengthAdjust="spacing" textLength="10.8291" x="661.0042" y="283.2983">(l:</text><a href="http://gitlab.altair.recouv/999/cobol_tools/-/tree/livraison/TESTXX.cob#L30" target="_top" title="http://gitlab.altair.recouv/999/cobol_tools/-/tree/livraison/TESTXX.cob#L30" xlink:actuate="onRequest" xlink:href="http://gitlab.altair.recouv/999/cobol_tools/-/tree/livraison/TESTXX.cob#L30" xlink:show="new" xlink:title="http://gitlab.altair.recouv/999/cobol_tools/-/tree/livraison/TESTXX.cob#L30" xlink:type="simple"><text fill="#0000FF" font-family="arial" font-size="13" lengthAdjust="spacing" text-decoration="underline" textLength="14.46" x="671.8333" y="283.2983">30</text></a><text fill="#0000FF" font-family="arial" font-size="13" lengthAdjust="spacing" textLength="4.3291" x="686.2932" y="283.2983">)</text><polygon fill="#FFFFCC" points="390.8679,291.0532,643.0042,291.0532,655.0042,308.3018,643.0042,325.5503,390.8679,325.5503,378.8679,308.3018,390.8679,291.0532" style="stroke:#FFCC00;stroke-width:0.5;"/><text fill="#666600" font-family="arial" font-size="15" lengthAdjust="spacing" text-decoration="underline" textLength="13.3301" x="390.8679" y="305.123">IF</text><text fill="#666600" font-family="arial" font-size="15" lengthAdjust="spacing" textLength="212.959" x="408.3655" y="305.123">LK-CONV-1 NOT &gt; LK-CONV-2</text><text fill="#666600" font-family="arial" font-size="15" lengthAdjust="spacing" textLength="252.1362" x="390.8679" y="322.3716">OR LK-CONV-1 NOT = LK-CONV-2 ?</text><text fill="#FF6600" font-family="arial" font-size="15" lengthAdjust="spacing" textLength="23.3423" x="355.5256" y="305.123">yes</text><text fill="#FF6600" font-family="arial" font-size="15" lengthAdjust="spacing" textLength="16.6846" x="655.0042" y="305.123">no</text><path d="M462.5388,339.9753 L462.5388,348.4497 L442.5388,352.4497 L462.5388,356.4497 L462.5388,364.9241 A0,0 0 0 0 462.5388,364.9241 L513.157,364.9241 A0,0 0 0 0 513.157,364.9241 L513.157,349.9753 L503.157,339.9753 L462.5388,339.9753 A0,0 0 0 0 462.5388,339.9753 " fill="#CCCCFF" style="stroke:#000080;stroke-width:0.5;"/><path d="M503.157,339.9753 L503.157,349.9753 L513.157,349.9753 L503.157,339.9753 " fill="#CCCCFF" style="stroke:#000080;stroke-width:0.5;"/><text fill="#0000FF" font-family="arial" font-size="13" lengthAdjust="spacing" textLength="10.8291" x="468.5388" y="357.1692">(l:</text><a href="http://gitlab.altair.recouv/999/cobol_tools/-/tree/livraison/TESTXX.cob#L33" target="_top" title="http://gitlab.altair.recouv/999/cobol_tools/-/tree/livraison/TESTXX.cob#L33" xlink:actuate="onRequest" xlink:href="http://gitlab.altair.recouv/999/cobol_tools/-/tree/livraison/TESTXX.cob#L33" xlink:show="new" xlink:title="http://gitlab.altair.recouv/999/cobol_tools/-/tree/livraison/TESTXX.cob#L33" xlink:type="simple"><text fill="#0000FF" font-family="arial" font-size="13" lengthAdjust="spacing" text-decoration="underline" textLength="14.46" x="479.3679" y="357.1692">33</text></a><text fill="#0000FF" font-family="arial" font-size="13" lengthAdjust="spacing" textLength="4.3291" x="493.8279" y="357.1692">)</text><rect fill="#E6F7FF" height="33.7988" rx="12.5" ry="12.5" style="stroke:#181818;stroke-width:0.5;" width="147.3418" x="295.197" y="335.5503"/><text fill="#003366" font-family="arial" font-size="12" lengthAdjust="spacing" textLength="127.3418" x="305.197" y="356.8062">MOVE 0 TO DIFFDATE</text><path d="M787.5325,339.9753 L787.5325,348.4497 L767.5325,352.4497 L787.5325,356.4497 L787.5325,364.9241 A0,0 0 0 0 787.5325,364.9241 L838.1506,364.9241 A0,0 0 0 0 838.1506,364.9241 L838.1506,349.9753 L828.1506,339.9753 L787.5325,339.9753 A0,0 0 0 0 787.5325,339.9753 " fill="#CCCCFF" style="stroke:#000080;stroke-width:0.5;"/><path d="M828.1506,339.9753 L828.1506,349.9753 L838.1506,349.9753 L828.1506,339.9753 " fill="#CCCCFF" style="stroke:#000080;stroke-width:0.5;"/><text fill="#0000FF" font-family="arial" font-size="13" lengthAdjust="spacing" textLength="10.8291" x="793.5325" y="357.1692">(l:</text><a href="http://gitlab.altair.recouv/999/cobol_tools/-/tree/livraison/TESTXX.cob#L36" target="_top" title="http://gitlab.altair.recouv/999/cobol_tools/-/tree/livraison/TESTXX.cob#L36" xlink:actuate="onRequest" xlink:href="http://gitlab.altair.recouv/999/cobol_tools/-/tree/livraison/TESTXX.cob#L36" xlink:show="new" xlink:title="http://gitlab.altair.recouv/999/cobol_tools/-/tree/livraison/TESTXX.cob#L36" xlink:type="simple"><text fill="#0000FF" font-family="arial" font-size="13" lengthAdjust="spacing" text-decoration="underline" textLength="14.46" x="804.3616" y="357.1692">36</text></a><text fill="#0000FF" font-family="arial" font-size="13" lengthAdjust="spacing" textLength="4.3291" x="818.8215" y="357.1692">)</text><rect fill="#FFC0CB" height="33.7988" style="stroke:#181818;stroke-width:0.5;" width="205.0566" x="562.4758" y="335.5503"/><line style="stroke:#181818;stroke-width:0.5;" x1="567.4758" x2="567.4758" y1="335.5503" y2="369.3491"/><line style="stroke:#181818;stroke-width:0.5;" x1="762.5325" x2="762.5325" y1="335.5503" y2="369.3491"/><text fill="#003366" font-family="arial" font-size="12" lengthAdjust="spacing" textLength="185.0566" x="572.4758" y="356.8062">ASUP -&gt; ASUP-FIN - voir ligne :40</text><path d="M352.2144,393.7742 L352.2144,418.7229 L472.936,418.7229 L472.936,403.7742 L462.936,393.7742 L352.2144,393.7742 " fill="#CCCCFF" style="stroke:#000080;stroke-width:0.5;"/><path d="M462.936,393.7742 L462.936,403.7742 L472.936,403.7742 L462.936,393.7742 " fill="#CCCCFF" style="stroke:#000080;stroke-width:0.5;"/><text fill="#0000FF" font-family="arial" font-size="13" lengthAdjust="spacing" textLength="78.0381" x="358.2144" y="410.968">Usages: lines</text><a href="http://gitlab.altair.recouv/999/cobol_tools/-/tree/livraison/TESTXX.cob#L34" target="_top" title="http://gitlab.altair.recouv/999/cobol_tools/-/tree/livraison/TESTXX.cob#L34" xlink:actuate="onRequest" xlink:href="http://gitlab.altair.recouv/999/cobol_tools/-/tree/livraison/TESTXX.cob#L34" xlink:show="new" xlink:title="http://gitlab.altair.recouv/999/cobol_tools/-/tree/livraison/TESTXX.cob#L34" xlink:type="simple"><text fill="#0000FF" font-family="arial" font-size="13" lengthAdjust="spacing" text-decoration="underline" textLength="14.46" x="439.8643" y="410.968">34</text></a><text fill="#0000FF" font-family="arial" font-size="13" lengthAdjust="spacing" textLength="3.6118" x="454.3242" y="410.968">&#160;</text><path d="M570.936,393.7742 L570.936,418.7229 L621.5542,418.7229 L621.5542,403.7742 L611.5542,393.7742 L570.936,393.7742 " fill="#CCCCFF" style="stroke:#000080;stroke-width:0.5;"/><path d="M611.5542,393.7742 L611.5542,403.7742 L621.5542,403.7742 L611.5542,393.7742 " fill="#CCCCFF" style="stroke:#000080;stroke-width:0.5;"/><text fill="#0000FF" font-family="arial" font-size="13" lengthAdjust="spacing" textLength="10.8291" x="576.936" y="410.968">(l:</text><a href="http://gitlab.altair.recouv/999/cobol_tools/-/tree/livraison/TESTXX.cob#L39" target="_top" title="http://gitlab.altair.recouv/999/cobol_tools/-/tree/livraison/TESTXX.cob#L39" xlink:actuate="onRequest" xlink:href="http://gitlab.altair.recouv/999/cobol_tools/-/tree/livraison/TESTXX.cob#L39" xlink:show="new" xlink:title="http://gitlab.altair.recouv/999/cobol_tools/-/tree/livraison/TESTXX.cob#L39" xlink:type="simple"><text fill="#0000FF" font-family="arial" font-size="13" lengthAdjust="spacing" text-decoration="underline" textLength="14.46" x="587.7651" y="410.968">39</text></a><text fill="#0000FF" font-family="arial" font-size="13" lengthAdjust="spacing" textLength="4.3291" x="602.2251" y="410.968">)</text><polygon fill="#98FB98" points="482.936,389.3491,560.936,389.3491,550.936,406.2485,560.936,423.1479,482.936,423.1479" style="stroke:#181818;stroke-width:0.5;"/><text fill="#003366" font-family="arial" font-size="12" lengthAdjust="spacing" textLength="48" x="492.936" y="410.605">DEB-FIN</text><path d="M359.8755,453.1479 L359.8755,478.0967 L480.5972,478.0967 L480.5972,463.1479 L470.5972,453.1479 L359.8755,453.1479 " fill="#CCCCFF" style="stroke:#000080;stroke-width:0.5;"/><path d="M470.5972,453.1479 L470.5972,463.1479 L480.5972,463.1479 L470.5972,453.1479 " fill="#CCCCFF" style="stroke:#000080;stroke-width:0.5;"/><text fill="#0000FF" font-family="arial" font-size="13" lengthAdjust="spacing" textLength="78.0381" x="365.8755" y="470.3418">Usages: lines</text><a href="http://gitlab.altair.recouv/999/cobol_tools/-/tree/livraison/TESTXX.cob#L36" target="_top" title="http://gitlab.altair.recouv/999/cobol_tools/-/tree/livraison/TESTXX.cob#L36" xlink:actuate="onRequest" xlink:href="http://gitlab.altair.recouv/999/cobol_tools/-/tree/livraison/TESTXX.cob#L36" xlink:show="new" xlink:title="http://gitlab.altair.recouv/999/cobol_tools/-/tree/livraison/TESTXX.cob#L36" xlink:type="simple"><text fill="#0000FF" font-family="arial" font-size="13" lengthAdjust="spacing" text-decoration="underline" textLength="14.46" x="447.5254" y="470.3418">36</text></a><text fill="#0000FF" font-family="arial" font-size="13" lengthAdjust="spacing" textLength="3.6118" x="461.9854" y="470.3418">&#160;</text><path d="M563.2749,453.1479 L563.2749,478.0967 L613.8931,478.0967 L613.8931,463.1479 L603.8931,453.1479 L563.2749,453.1479 " fill="#CCCCFF" style="stroke:#000080;stroke-width:0.5;"/><path d="M603.8931,453.1479 L603.8931,463.1479 L613.8931,463.1479 L603.8931,453.1479 " fill="#CCCCFF" style="stroke:#000080;stroke-width:0.5;"/><text fill="#0000FF" font-family="arial" font-size="13" lengthAdjust="spacing" textLength="10.8291" x="569.2749" y="470.3418">(l:</text><a href="http://gitlab.altair.recouv/999/cobol_tools/-/tree/livraison/TESTXX.cob#L40" target="_top" title="http://gitlab.altair.recouv/999/cobol_tools/-/tree/livraison/TESTXX.cob#L40" xlink:actuate="onRequest" xlink:href="http://gitlab.altair.recouv/999/cobol_tools/-/tree/livraison/TESTXX.cob#L40" xlink:show="new" xlink:title="http://gitlab.altair.recouv/999/cobol_tools/-/tree/livraison/TESTXX.cob#L40" xlink:type="simple"><text fill="#0000FF" font-family="arial" font-size="13" lengthAdjust="spacing" text-decoration="underline" textLength="14.46" x="580.104" y="470.3418">40</text></a><text fill="#0000FF" font-family="arial" font-size="13" lengthAdjust="spacing" textLength="4.3291" x="594.564" y="470.3418">)</text><polygon fill="#98FB98" points="490.5972,448.7229,553.2749,448.7229,543.2749,465.6223,553.2749,482.5217,490.5972,482.5217" style="stroke:#181818;stroke-width:0.5;"/><text fill="#003366" font-family="arial" font-size="12" lengthAdjust="spacing" textLength="32.6777" x="500.5972" y="469.9788">ASUP</text><ellipse cx="516.936" cy="519.0967" fill="none" rx="11" ry="11" style="stroke:#222222;stroke-width:1;"/><ellipse cx="516.936" cy="519.0967" fill="#E6F7FF" rx="6" ry="6" style="stroke:#222222;stroke-width:1;"/><path d="M348.2124,550.0967 L348.2124,575.0454 L468.9341,575.0454 L468.9341,560.0967 L458.9341,550.0967 L348.2124,550.0967 " fill="#CCCCFF" style="stroke:#000080;stroke-width:0.5;"/><path d="M458.9341,550.0967 L458.9341,560.0967 L468.9341,560.0967 L458.9341,550.0967 " fill="#CCCCFF" style="stroke:#000080;stroke-width:0.5;"/><text fill="#0000FF" font-family="arial" font-size="13" lengthAdjust="spacing" textLength="78.0381" x="354.2124" y="567.2905">Usages: lines</text><a href="http://gitlab.altair.recouv/999/cobol_tools/-/tree/livraison/TESTXX.cob#L36" target="_top" title="http://gitlab.altair.recouv/999/cobol_tools/-/tree/livraison/TESTXX.cob#L36" xlink:actuate="onRequest" xlink:href="http://gitlab.altair.recouv/999/cobol_tools/-/tree/livraison/TESTXX.cob#L36" xlink:show="new" xlink:title="http://gitlab.altair.recouv/999/cobol_tools/-/tree/livraison/TESTXX.cob#L36" xlink:type="simple"><text fill="#0000FF" font-family="arial" font-size="13" lengthAdjust="spacing" text-decoration="underline" textLength="14.46" x="435.8623" y="567.2905">36</text></a><text fill="#0000FF" font-family="arial" font-size="13" lengthAdjust="spacing" textLength="3.6118" x="450.3223" y="567.2905">&#160;</text><path d="M574.938,550.0967 L574.938,575.0454 L625.5562,575.0454 L625.5562,560.0967 L615.5562,550.0967 L574.938,550.0967 " fill="#CCCCFF" style="stroke:#000080;stroke-width:0.5;"/><path d="M615.5562,550.0967 L615.5562,560.0967 L625.5562,560.0967 L615.5562,550.0967 " fill="#CCCCFF" style="stroke:#000080;stroke-width:0.5;"/><text fill="#0000FF" font-family="arial" font-size="13" lengthAdjust="spacing" textLength="10.8291" x="580.938" y="567.2905">(l:</text><a href="http://gitlab.altair.recouv/999/cobol_tools/-/tree/livraison/TESTXX.cob#L42" target="_top" title="http://gitlab.altair.recouv/999/cobol_tools/-/tree/livraison/TESTXX.cob#L42" xlink:actuate="onRequest" xlink:href="http://gitlab.altair.recouv/999/cobol_tools/-/tree/livraison/TESTXX.cob#L42" xlink:show="new" xlink:title="http://gitlab.altair.recouv/999/cobol_tools/-/tree/livraison/TESTXX.cob#L42" xlink:type="simple"><text fill="#0000FF" font-family="arial" font-size="13" lengthAdjust="spacing" text-decoration="underline" textLength="14.46" x="591.7671" y="567.2905">42</text></a><text fill="#0000FF" font-family="arial" font-size="13" lengthAdjust="spacing" textLength="4.3291" x="606.2271" y="567.2905">)</text><polygon fill="#98FB98" points="478.9341,545.6716,564.938,545.6716,554.938,562.571,564.938,579.4705,478.9341,579.4705" style="stroke:#181818;stroke-width:0.5;"/><text fill="#003366" font-family="arial" font-size="12" lengthAdjust="spacing" textLength="56.0039" x="488.9341" y="566.9275">ASUP-FIN</text><path d="M630.9429,609.4705 L630.9429,617.9448 L610.9429,621.9448 L630.9429,625.9448 L630.9429,634.4192 A0,0 0 0 0 630.9429,634.4192 L681.561,634.4192 A0,0 0 0 0 681.561,634.4192 L681.561,619.4705 L671.561,609.4705 L630.9429,609.4705 A0,0 0 0 0 630.9429,609.4705 " fill="#CCCCFF" style="stroke:#000080;stroke-width:0.5;"/><path d="M671.561,609.4705 L671.561,619.4705 L681.561,619.4705 L671.561,609.4705 " fill="#CCCCFF" style="stroke:#000080;stroke-width:0.5;"/><text fill="#0000FF" font-family="arial" font-size="13" lengthAdjust="spacing" textLength="10.8291" x="636.9429" y="626.6643">(l:</text><a href="http://gitlab.altair.recouv/999/cobol_tools/-/tree/livraison/TESTXX.cob#L43" target="_top" title="http://gitlab.altair.recouv/999/cobol_tools/-/tree/livraison/TESTXX.cob#L43" xlink:actuate="onRequest" xlink:href="http://gitlab.altair.recouv/999/cobol_tools/-/tree/livraison/TESTXX.cob#L43" xlink:show="new" xlink:title="http://gitlab.altair.recouv/999/cobol_tools/-/tree/livraison/TESTXX.cob#L43" xlink:type="simple"><text fill="#0000FF" font-family="arial" font-size="13" lengthAdjust="spacing" text-decoration="underline" textLength="14.46" x="647.772" y="626.6643">43</text></a><text fill="#0000FF" font-family="arial" font-size="13" lengthAdjust="spacing" textLength="4.3291" x="662.2319" y="626.6643">)</text><polygon fill="#98FB98" points="432.9292,605.0454,610.9429,605.0454,600.9429,621.9448,610.9429,638.8442,432.9292,638.8442" style="stroke:#181818;stroke-width:0.5;"/><text fill="#003366" font-family="arial" font-size="12" lengthAdjust="spacing" textLength="148.0137" x="442.9292" y="626.3013">EXIT-GOBACK-PROGRAM</text><path d="M21,657.3699 L21,682.3186 A0,0 0 0 0 21,682.3186 L485.936,682.3186 A0,0 0 0 0 485.936,682.3186 L485.936,675.3699 L505.936,669.8442 L485.936,667.3699 L485.936,667.3699 L475.936,657.3699 L21,657.3699 A0,0 0 0 0 21,657.3699 " fill="#CCCCFF" style="stroke:#000080;stroke-width:0.5;"/><path d="M475.936,657.3699 L475.936,667.3699 L485.936,667.3699 L475.936,657.3699 " fill="#CCCCFF" style="stroke:#000080;stroke-width:0.5;"/><text fill="#0000FF" font-family="arial" font-size="13" lengthAdjust="spacing" textLength="443.936" x="27" y="674.5637">.==========================================================</text><ellipse cx="516.936" cy="669.8442" fill="none" rx="11" ry="11" style="stroke:#222222;stroke-width:1;"/><ellipse cx="516.936" cy="669.8442" fill="#E6F7FF" rx="6" ry="6" style="stroke:#222222;stroke-width:1;"/><path d="M319.1851,702.3186 L319.1851,727.2673 L439.9067,727.2673 L439.9067,712.3186 L429.9067,702.3186 L319.1851,702.3186 " fill="#CCCCFF" style="stroke:#000080;stroke-width:0.5;"/><path d="M429.9067,702.3186 L429.9067,712.3186 L439.9067,712.3186 L429.9067,702.3186 " fill="#CCCCFF" style="stroke:#000080;stroke-width:0.5;"/><text fill="#0000FF" font-family="arial" font-size="13" lengthAdjust="spacing" textLength="78.0381" x="325.1851" y="719.5125">Usages: lines</text><a href="http://gitlab.altair.recouv/999/cobol_tools/-/tree/livraison/TESTXX.cob#L27" target="_top" title="http://gitlab.altair.recouv/999/cobol_tools/-/tree/livraison/TESTXX.cob#L27" xlink:actuate="onRequest" xlink:href="http://gitlab.altair.recouv/999/cobol_tools/-/tree/livraison/TESTXX.cob#L27" xlink:show="new" xlink:title="http://gitlab.altair.recouv/999/cobol_tools/-/tree/livraison/TESTXX.cob#L27" xlink:type="simple"><text fill="#0000FF" font-family="arial" font-size="13" lengthAdjust="spacing" text-decoration="underline" textLength="14.46" x="406.835" y="719.5125">27</text></a><text fill="#0000FF" font-family="arial" font-size="13" lengthAdjust="spacing" textLength="3.6118" x="421.2949" y="719.5125">&#160;</text><path d="M603.9653,702.3186 L603.9653,727.2673 L654.5835,727.2673 L654.5835,712.3186 L644.5835,702.3186 L603.9653,702.3186 " fill="#CCCCFF" style="stroke:#000080;stroke-width:0.5;"/><path d="M644.5835,702.3186 L644.5835,712.3186 L654.5835,712.3186 L644.5835,702.3186 " fill="#CCCCFF" style="stroke:#000080;stroke-width:0.5;"/><text fill="#0000FF" font-family="arial" font-size="13" lengthAdjust="spacing" textLength="10.8291" x="609.9653" y="719.5125">(l:</text><a href="http://gitlab.altair.recouv/999/cobol_tools/-/tree/livraison/TESTXX.cob#L46" target="_top" title="http://gitlab.altair.recouv/999/cobol_tools/-/tree/livraison/TESTXX.cob#L46" xlink:actuate="onRequest" xlink:href="http://gitlab.altair.recouv/999/cobol_tools/-/tree/livraison/TESTXX.cob#L46" xlink:show="new" xlink:title="http://gitlab.altair.recouv/999/cobol_tools/-/tree/livraison/TESTXX.cob#L46" xlink:type="simple"><text fill="#0000FF" font-family="arial" font-size="13" lengthAdjust="spacing" text-decoration="underline" textLength="14.46" x="620.7944" y="719.5125">46</text></a><text fill="#0000FF" font-family="arial" font-size="13" lengthAdjust="spacing" textLength="4.3291" x="635.2544" y="719.5125">)</text><polygon fill="#98FB98" points="449.9067,697.8936,593.9653,697.8936,583.9653,714.793,593.9653,731.6924,449.9067,731.6924" style="stroke:#181818;stroke-width:0.5;"/><text fill="#003366" font-family="arial" font-size="12" lengthAdjust="spacing" textLength="114.0586" x="459.9067" y="719.1494">APPEL-SP2000-DEB</text><path d="M721.6362,761.6924 L721.6362,770.1667 L701.6362,774.1667 L721.6362,778.1667 L721.6362,786.6411 A0,0 0 0 0 721.6362,786.6411 L772.2544,786.6411 A0,0 0 0 0 772.2544,786.6411 L772.2544,771.6924 L762.2544,761.6924 L721.6362,761.6924 A0,0 0 0 0 721.6362,761.6924 " fill="#CCCCFF" style="stroke:#000080;stroke-width:0.5;"/><path d="M762.2544,761.6924 L762.2544,771.6924 L772.2544,771.6924 L762.2544,761.6924 " fill="#CCCCFF" style="stroke:#000080;stroke-width:0.5;"/><text fill="#0000FF" font-family="arial" font-size="13" lengthAdjust="spacing" textLength="10.8291" x="727.6362" y="778.8862">(l:</text><a href="http://gitlab.altair.recouv/999/cobol_tools/-/tree/livraison/TESTXX.cob#L47" target="_top" title="http://gitlab.altair.recouv/999/cobol_tools/-/tree/livraison/TESTXX.cob#L47" xlink:actuate="onRequest" xlink:href="http://gitlab.altair.recouv/999/cobol_tools/-/tree/livraison/TESTXX.cob#L47" xlink:show="new" xlink:title="http://gitlab.altair.recouv/999/cobol_tools/-/tree/livraison/TESTXX.cob#L47" xlink:type="simple"><text fill="#0000FF" font-family="arial" font-size="13" lengthAdjust="spacing" text-decoration="underline" textLength="14.46" x="738.4653" y="778.8862">47</text></a><text fill="#0000FF" font-family="arial" font-size="13" lengthAdjust="spacing" textLength="4.3291" x="752.9253" y="778.8862">)</text><rect fill="#FFD700" height="33.7988" style="stroke:#181818;stroke-width:0.5;" width="369.4004" x="332.2358" y="757.2673"/><line style="stroke:#181818;stroke-width:0.5;" x1="337.2358" x2="337.2358" y1="757.2673" y2="791.0662"/><line style="stroke:#181818;stroke-width:0.5;" x1="696.6362" x2="696.6362" y1="757.2673" y2="791.0662"/><text fill="#003366" font-family="arial" font-size="12" lengthAdjust="spacing" textLength="349.4004" x="342.2358" y="778.5232">CALL SP2000(ISP2000, DTFLNK, DTFINP, DTFWRK, DTFCOM)</text><path d="M321.8569,815.4912 L321.8569,840.4399 L442.5786,840.4399 L442.5786,825.4912 L432.5786,815.4912 L321.8569,815.4912 " fill="#CCCCFF" style="stroke:#000080;stroke-width:0.5;"/><path d="M432.5786,815.4912 L432.5786,825.4912 L442.5786,825.4912 L432.5786,815.4912 " fill="#CCCCFF" style="stroke:#000080;stroke-width:0.5;"/><text fill="#0000FF" font-family="arial" font-size="13" lengthAdjust="spacing" textLength="78.0381" x="327.8569" y="832.6851">Usages: lines</text><a href="http://gitlab.altair.recouv/999/cobol_tools/-/tree/livraison/TESTXX.cob#L27" target="_top" title="http://gitlab.altair.recouv/999/cobol_tools/-/tree/livraison/TESTXX.cob#L27" xlink:actuate="onRequest" xlink:href="http://gitlab.altair.recouv/999/cobol_tools/-/tree/livraison/TESTXX.cob#L27" xlink:show="new" xlink:title="http://gitlab.altair.recouv/999/cobol_tools/-/tree/livraison/TESTXX.cob#L27" xlink:type="simple"><text fill="#0000FF" font-family="arial" font-size="13" lengthAdjust="spacing" text-decoration="underline" textLength="14.46" x="409.5068" y="832.6851">27</text></a><text fill="#0000FF" font-family="arial" font-size="13" lengthAdjust="spacing" textLength="3.6118" x="423.9668" y="832.6851">&#160;</text><path d="M601.2935,815.4912 L601.2935,840.4399 L651.9116,840.4399 L651.9116,825.4912 L641.9116,815.4912 L601.2935,815.4912 " fill="#CCCCFF" style="stroke:#000080;stroke-width:0.5;"/><path d="M641.9116,815.4912 L641.9116,825.4912 L651.9116,825.4912 L641.9116,815.4912 " fill="#CCCCFF" style="stroke:#000080;stroke-width:0.5;"/><text fill="#0000FF" font-family="arial" font-size="13" lengthAdjust="spacing" textLength="10.8291" x="607.2935" y="832.6851">(l:</text><a href="http://gitlab.altair.recouv/999/cobol_tools/-/tree/livraison/TESTXX.cob#L48" target="_top" title="http://gitlab.altair.recouv/999/cobol_tools/-/tree/livraison/TESTXX.cob#L48" xlink:actuate="onRequest" xlink:href="http://gitlab.altair.recouv/999/cobol_tools/-/tree/livraison/TESTXX.cob#L48" xlink:show="new" xlink:title="http://gitlab.altair.recouv/999/cobol_tools/-/tree/livraison/TESTXX.cob#L48" xlink:type="simple"><text fill="#0000FF" font-family="arial" font-size="13" lengthAdjust="spacing" text-decoration="underline" textLength="14.46" x="618.1226" y="832.6851">48</text></a><text fill="#0000FF" font-family="arial" font-size="13" lengthAdjust="spacing" textLength="4.3291" x="632.5825" y="832.6851">)</text><polygon fill="#98FB98" points="452.5786,811.0662,591.2935,811.0662,581.2935,827.9656,591.2935,844.865,452.5786,844.865" style="stroke:#181818;stroke-width:0.5;"/><text fill="#003366" font-family="arial" font-size="12" lengthAdjust="spacing" textLength="108.7148" x="462.5786" y="832.322">APPEL-SP2000-FIN</text><path d="M21,868.9656 L21,893.9143 A0,0 0 0 0 21,893.9143 L485.936,893.9143 A0,0 0 0 0 485.936,893.9143 L485.936,886.9656 L505.936,881.4399 L485.936,878.9656 L485.936,878.9656 L475.936,868.9656 L21,868.9656 A0,0 0 0 0 21,868.9656 " fill="#CCCCFF" style="stroke:#000080;stroke-width:0.5;"/><path d="M475.936,868.9656 L475.936,878.9656 L485.936,878.9656 L475.936,868.9656 " fill="#CCCCFF" style="stroke:#000080;stroke-width:0.5;"/><text fill="#0000FF" font-family="arial" font-size="13" lengthAdjust="spacing" textLength="443.936" x="27" y="886.1594">.==========================================================</text><ellipse cx="516.936" cy="881.4399" fill="none" rx="11" ry="11" style="stroke:#222222;stroke-width:1;"/><ellipse cx="516.936" cy="881.4399" fill="#E6F7FF" rx="6" ry="6" style="stroke:#222222;stroke-width:1;"/><ellipse cx="516.936" cy="914.9143" fill="none" rx="11" ry="11" style="stroke:#222222;stroke-width:1;"/><ellipse cx="516.936" cy="914.9143" fill="#E6F7FF" rx="6" ry="6" style="stroke:#222222;stroke-width:1;"/><line style="stroke:#181818;stroke-width:1;" x1="516.936" x2="516.936" y1="148.5068" y2="168.5068"/><polygon fill="#181818" points="512.936,158.5068,516.936,168.5068,520.936,158.5068,516.936,162.5068" style="stroke:#181818;stroke-width:1;"/><line style="stroke:#181818;stroke-width:1;" x1="516.936" x2="516.936" y1="202.3057" y2="222.3057"/><polygon fill="#181818" points="512.936,212.3057,516.936,222.3057,520.936,212.3057,516.936,216.3057" style="stroke:#181818;stroke-width:1;"/><line style="stroke:#181818;stroke-width:1;" x1="378.8679" x2="368.8679" y1="308.3018" y2="308.3018"/><line style="stroke:#181818;stroke-width:1;" x1="368.8679" x2="368.8679" y1="308.3018" y2="335.5503"/><polygon fill="#181818" points="364.8679,325.5503,368.8679,335.5503,372.8679,325.5503,368.8679,329.5503" style="stroke:#181818;stroke-width:1;"/><line style="stroke:#181818;stroke-width:1;" x1="655.0042" x2="665.0042" y1="308.3018" y2="308.3018"/><line style="stroke:#181818;stroke-width:1;" x1="665.0042" x2="665.0042" y1="308.3018" y2="335.5503"/><polygon fill="#181818" points="661.0042,325.5503,665.0042,335.5503,669.0042,325.5503,665.0042,329.5503" style="stroke:#181818;stroke-width:1;"/><line style="stroke:#181818;stroke-width:1;" x1="665.0042" x2="665.0042" y1="369.3491" y2="374.3491"/><line style="stroke:#181818;stroke-width:1;" x1="665.0042" x2="516.936" y1="374.3491" y2="374.3491"/><line style="stroke:#181818;stroke-width:1;" x1="516.936" x2="516.936" y1="374.3491" y2="389.3491"/><polygon fill="#181818" points="512.936,379.3491,516.936,389.3491,520.936,379.3491,516.936,383.3491" style="stroke:#181818;stroke-width:1;"/><line style="stroke:#181818;stroke-width:1;" x1="516.936" x2="516.936" y1="256.1045" y2="291.0532"/><polygon fill="#181818" points="512.936,281.0532,516.936,291.0532,520.936,281.0532,516.936,285.0532" style="stroke:#181818;stroke-width:1;"/><line style="stroke:#181818;stroke-width:1;" x1="516.936" x2="516.936" y1="423.1479" y2="448.7229"/><polygon fill="#181818" points="512.936,438.7229,516.936,448.7229,520.936,438.7229,516.936,442.7229" style="stroke:#181818;stroke-width:1;"/><line style="stroke:#181818;stroke-width:1;" x1="516.936" x2="516.936" y1="482.5217" y2="508.0967"/><polygon fill="#181818" points="512.936,498.0967,516.936,508.0967,520.936,498.0967,516.936,502.0967" style="stroke:#181818;stroke-width:1;"/><line style="stroke:#181818;stroke-width:1;" x1="516.936" x2="516.936" y1="579.4705" y2="605.0454"/><polygon fill="#181818" points="512.936,595.0454,516.936,605.0454,520.936,595.0454,516.936,599.0454" style="stroke:#181818;stroke-width:1;"/><line style="stroke:#181818;stroke-width:1;" x1="516.936" x2="516.936" y1="638.8442" y2="658.8442"/><polygon fill="#181818" points="512.936,648.8442,516.936,658.8442,520.936,648.8442,516.936,652.8442" style="stroke:#181818;stroke-width:1;"/><line style="stroke:#181818;stroke-width:1;" x1="516.936" x2="516.936" y1="731.6924" y2="757.2673"/><polygon fill="#181818" points="512.936,747.2673,516.936,757.2673,520.936,747.2673,516.936,751.2673" style="stroke:#181818;stroke-width:1;"/><line style="stroke:#181818;stroke-width:1;" x1="516.936" x2="516.936" y1="791.0662" y2="811.0662"/><polygon fill="#181818" points="512.936,801.0662,516.936,811.0662,520.936,801.0662,516.936,805.0662" style="stroke:#181818;stroke-width:1;"/><line style="stroke:#181818;stroke-width:1;" x1="516.936" x2="516.936" y1="844.865" y2="870.4399"/><polygon fill="#181818" points="512.936,860.4399,516.936,870.4399,520.936,860.4399,516.936,864.4399" style="stroke:#181818;stroke-width:1;"/><line style="stroke:#181818;stroke-width:1;" x1="516.936" x2="516.936" y1="68.6094" y2="114.708"/><polygon fill="#181818" points="512.936,104.708,516.936,114.708,520.936,104.708,516.936,108.708" style="stroke:#181818;stroke-width:1;"/><!--SRC=[nLPTRzem57qcl-9Al82qa127K3B6b8QaeWM2ADigTHNoY0VMKXivRgUkwt-Vyx4MslLXqz9QGewlatlkEUV6eP_AcuGCDBoIz9hAco75Qu4luLO3ECIhRsl1hrZiyuGBg0TEs0t3R8UBc8WoYb2lbqT3pcGPCqs47AUCJV4b0ImeJZGLYIc-v2pE4Vw04QhX-_dUc39o7_LzqyoZEoYE6ZlH7PpVeLFwWq2xezPtweU5uDzBu9qqOVXtQRPOI2efPsMglJfDyscTfdaFC2-e2aO4jCtd90YSm2d169VaQSaPIgxv7deMFNWcgQz6_iITTgV5V7LrIPWi4Z- -zzE6IgBkwXjbSoYs2O4L_yAJfUGyIOr5SBeuEskfa9PA9OVseCaikr9g6UrRhLRVueIi1I7C7GQ7VQXfEHz1rnlfGYDnpyytKcvTmrWh3FobXHE9gMW9ik9NrqQlrpDsONL3gbn6Ggy5fYbdEtNKnrO7hCx5HLFJQkua-XZ0q5kqFNqEYmZ69xhdJIR7nuuUJ1UwzRRQIXomdAAI-eooRwutcmLZ_NHcAODq9GJe0zYBXQCfw73DgO24hXa1rtRUGh-_5Nn5uYj11WEeik0kMDsiOAZLw5TeB9UZSBdCLFEZwKUz3TDe0OFxjVMPHVD7k-yUTk5z4-I6C6ZSaBHPPTt816GMGfUUcvdRmr4OAlC3vNALDYC429NeXSz7KGuV73urr30KEEer3MEWgeg9nAkDUeuaAO46uzNAr07KsIlKE_qmovjGpNzgFlC5cmyvW9oo-GYBwTV7nqPMOBL71-e1wXK2PI1A9ZK-f7XDKbTfmaWA_nFD1cHVN82MqOK2S8TnvacrT6qJRFFbw1R-xj5D9Ty-8LszpxO5jlMgn7Se1sUZXNuK7Nh-YJwRHqTpRr8nUmHsULuL-Zzeq7htp-EvBdxqoQkOcWEsysB6bf_BVMEFU1AxlZSUGq6wCIhcDp1SXEFfIJwFfhDy_ZGlrduqQVwiyd2rks1toxyYpvXJ_Ljt0FR1gvfJJRldMUz-0G00]--></g></svg>