<svg xmlns="http://www.w3.org/2000/svg" xmlns:xlink="http://www.w3.org/1999/xlink" contentStyleType="text/css" height="1002px" preserveAspectRatio="none" style="width:861px;height:1002px;background:#FFFFFF;" version="1.1" viewBox="0 0 861 1002" width="861px" zoomAndPan="magnify"><title>cobol_tools/TESTXX.cob</title><defs/><g><text fill="#000000" font-family="sans-serif" font-size="14" font-weight="bold" lengthAdjust="spacing" textLength="165.6826" x="346.234" y="34.5332">cobol_tools/TESTXX.cob</text><ellipse cx="516.936" cy="58.6094" fill="#E6F7FF" rx="10" ry="10" style="stroke:#222222;stroke-width:1;"/><rect fill="#FFE6E6" height="913.1038" rx="5" ry="5" style="stroke:#FF0000;stroke-width:1.5;" width="839.1506" x="11" y="78.6094"/><path d="M80.9238,78.6094 L80.9238,87.708 L70.9238,97.708 L11,97.708 " fill="none" style="stroke:#FF0000;stroke-width:1.5;"/><text fill="#006600" font-family="arial" font-size="14" lengthAdjust="spacing" textLength="59.9238" x="14" y="92.7412">Partie 1/1</text><path d="M569.2729,119.1331 L569.2729,127.6074 L549.2729,131.6074 L569.2729,135.6074 L569.2729,144.0818 A0,0 0 0 0 569.2729,144.0818 L619.8911,144.0818 A0,0 0 0 0 619.8911,144.0818 L619.8911,129.1331 L609.8911,119.1331 L569.2729,119.1331 A0,0 0 0 0 569.2729,119.1331 " fill="#CCCCFF" style="stroke:#000080;stroke-width:0.5;"/><path d="M609.8911,119.1331 L609.8911,129.1331 L619.8911,129.1331 L609.8911,119.1331 " fill="#CCCCFF" style="stroke:#000080;stroke-width:0.5;"/><text fill="#0000FF" font-family="arial" font-size="13" font-style="italic" lengthAdjust="spacing" textLength="29.6182" x="575.2729" y="136.3269">(l:25)</text><polygon fill="#98FB98" points="494.5991,114.708,549.2729,114.708,539.2729,131.6074,549.2729,148.5068,494.5991,148.5068" style="stroke:#181818;stroke-width:0.5;"/><text fill="#003366" font-family="arial" font-size="12" lengthAdjust="spacing" textLength="24.6738" x="504.5991" y="135.9639">DEB</text><path d="M659.6147,172.9319 L659.6147,181.4063 L639.6147,185.4063 L659.6147,189.4063 L659.6147,197.8806 A0,0 0 0 0 659.6147,197.8806 L710.2329,197.8806 A0,0 0 0 0 710.2329,197.8806 L710.2329,182.9319 L700.2329,172.9319 L659.6147,172.9319 A0,0 0 0 0 659.6147,172.9319 " fill="#CCCCFF" style="stroke:#000080;stroke-width:0.5;"/><path d="M700.2329,172.9319 L700.2329,182.9319 L710.2329,182.9319 L700.2329,172.9319 " fill="#CCCCFF" style="stroke:#000080;stroke-width:0.5;"/><text fill="#0000FF" font-family="arial" font-size="13" font-style="italic" lengthAdjust="spacing" textLength="29.6182" x="665.6147" y="190.1257">(l:26)</text><rect fill="#E6F7FF" height="33.7988" rx="12.5" ry="12.5" style="stroke:#181818;stroke-width:0.5;" width="245.3574" x="394.2573" y="168.5068"/><text fill="#003366" font-family="arial" font-size="12" lengthAdjust="spacing" textLength="225.3574" x="404.2573" y="189.7627">MOVE DAT1A-R TO LK-AAMMJJ6-ENT-2</text><path d="M706.5103,226.7307 L706.5103,235.2051 L686.5103,239.2051 L706.5103,243.2051 L706.5103,251.6794 A0,0 0 0 0 706.5103,251.6794 L757.1284,251.6794 A0,0 0 0 0 757.1284,251.6794 L757.1284,236.7307 L747.1284,226.7307 L706.5103,226.7307 A0,0 0 0 0 706.5103,226.7307 " fill="#CCCCFF" style="stroke:#000080;stroke-width:0.5;"/><path d="M747.1284,226.7307 L747.1284,236.7307 L757.1284,236.7307 L747.1284,226.7307 " fill="#CCCCFF" style="stroke:#000080;stroke-width:0.5;"/><text fill="#0000FF" font-family="arial" font-size="13" font-style="italic" lengthAdjust="spacing" textLength="29.6182" x="712.5103" y="243.9246">(l:27)</text><rect fill="#FFC0CB" height="33.7988" style="stroke:#181818;stroke-width:0.5;" width="339.1484" x="347.3618" y="222.3057"/><line style="stroke:#181818;stroke-width:0.5;" x1="352.3618" x2="352.3618" y1="222.3057" y2="256.1045"/><line style="stroke:#181818;stroke-width:0.5;" x1="681.5103" x2="681.5103" y1="222.3057" y2="256.1045"/><text fill="#003366" font-family="arial" font-size="12" lengthAdjust="spacing" textLength="319.1484" x="357.3618" y="243.5615">APPEL-SP2000-DEB -&gt; APPEL-SP2000-FIN - voir ligne :46</text><path d="M655.0042,266.1045 L655.0042,291.0532 L705.6223,291.0532 L705.6223,276.1045 L695.6223,266.1045 L655.0042,266.1045 " fill="#CCCCFF" style="stroke:#000080;stroke-width:0.5;"/><path d="M695.6223,266.1045 L695.6223,276.1045 L705.6223,276.1045 L695.6223,266.1045 " fill="#CCCCFF" style="stroke:#000080;stroke-width:0.5;"/><text fill="#0000FF" font-family="arial" font-size="13" font-style="italic" lengthAdjust="spacing" textLength="29.6182" x="661.0042" y="283.2983">(l:30)</text><polygon fill="#FFFFCC" points="390.8679,291.0532,643.0042,291.0532,655.0042,308.3018,643.0042,325.5503,390.8679,325.5503,378.8679,308.3018,390.8679,291.0532" style="stroke:#FFCC00;stroke-width:0.5;"/><text fill="#666600" font-family="arial" font-size="15" lengthAdjust="spacing" text-decoration="underline" textLength="13.3301" x="390.8679" y="305.123">IF</text><text fill="#666600" font-family="arial" font-size="15" lengthAdjust="spacing" textLength="212.959" x="408.3655" y="305.123">LK-CONV-1 NOT &gt; LK-CONV-2</text><text fill="#666600" font-family="arial" font-size="15" lengthAdjust="spacing" textLength="252.1362" x="390.8679" y="322.3716">OR LK-CONV-1 NOT = LK-CONV-2 ?</text><text fill="#FF6600" font-family="arial" font-size="15" lengthAdjust="spacing" textLength="23.3423" x="355.5256" y="305.123">yes</text><text fill="#FF6600" font-family="arial" font-size="15" lengthAdjust="spacing" textLength="16.6846" x="655.0042" y="305.123">no</text><path d="M462.5388,339.9753 L462.5388,348.4497 L442.5388,352.4497 L462.5388,356.4497 L462.5388,364.9241 A0,0 0 0 0 462.5388,364.9241 L513.157,364.9241 A0,0 0 0 0 513.157,364.9241 L513.157,349.9753 L503.157,339.9753 L462.5388,339.9753 A0,0 0 0 0 462.5388,339.9753 " fill="#CCCCFF" style="stroke:#000080;stroke-width:0.5;"/><path d="M503.157,339.9753 L503.157,349.9753 L513.157,349.9753 L503.157,339.9753 " fill="#CCCCFF" style="stroke:#000080;stroke-width:0.5;"/><text fill="#0000FF" font-family="arial" font-size="13" font-style="italic" lengthAdjust="spacing" textLength="29.6182" x="468.5388" y="357.1692">(l:33)</text><rect fill="#E6F7FF" height="33.7988" rx="12.5" ry="12.5" style="stroke:#181818;stroke-width:0.5;" width="147.3418" x="295.197" y="335.5503"/><text fill="#003366" font-family="arial" font-size="12" lengthAdjust="spacing" textLength="127.3418" x="305.197" y="356.8062">MOVE 0 TO DIFFDATE</text><polygon fill="#FFC0CB" points="269.1873,389.3491,468.5486,389.3491,478.5486,406.2485,468.5486,423.1479,269.1873,423.1479" style="stroke:#181818;stroke-width:0.5;"/><text fill="#003366" font-family="arial" font-size="12" lengthAdjust="spacing" textLength="148.6875" x="279.1873" y="410.605">GO TO DEB-FIN - voir ligne</text><text fill="#003366" font-family="arial" font-size="12" font-style="italic" lengthAdjust="spacing" textLength="27.3398" x="431.2087" y="410.605">(l:39)</text><path d="M787.5325,339.9753 L787.5325,348.4497 L767.5325,352.4497 L787.5325,356.4497 L787.5325,364.9241 A0,0 0 0 0 787.5325,364.9241 L838.1506,364.9241 A0,0 0 0 0 838.1506,364.9241 L838.1506,349.9753 L828.1506,339.9753 L787.5325,339.9753 A0,0 0 0 0 787.5325,339.9753 " fill="#CCCCFF" style="stroke:#000080;stroke-width:0.5;"/><path d="M828.1506,339.9753 L828.1506,349.9753 L838.1506,349.9753 L828.1506,339.9753 " fill="#CCCCFF" style="stroke:#000080;stroke-width:0.5;"/><text fill="#0000FF" font-family="arial" font-size="13" font-style="italic" lengthAdjust="spacing" textLength="29.6182" x="793.5325" y="357.1692">(l:36)</text><rect fill="#FFC0CB" height="33.7988" style="stroke:#181818;stroke-width:0.5;" width="205.0566" x="562.4758" y="335.5503"/><line style="stroke:#181818;stroke-width:0.5;" x1="567.4758" x2="567.4758" y1="335.5503" y2="369.3491"/><line style="stroke:#181818;stroke-width:0.5;" x1="762.5325" x2="762.5325" y1="335.5503" y2="369.3491"/><text fill="#003366" font-family="arial" font-size="12" lengthAdjust="spacing" textLength="185.0566" x="572.4758" y="356.8062">ASUP -&gt; ASUP-FIN - voir ligne :40</text><path d="M348.6025,447.573 L348.6025,472.5217 L472.936,472.5217 L472.936,457.573 L462.936,447.573 L348.6025,447.573 " fill="#CCCCFF" style="stroke:#000080;stroke-width:0.5;"/><path d="M462.936,447.573 L462.936,457.573 L472.936,457.573 L462.936,447.573 " fill="#CCCCFF" style="stroke:#000080;stroke-width:0.5;"/><text fill="#0000FF" font-family="arial" font-size="13" lengthAdjust="spacing" textLength="103.3335" x="354.6025" y="464.7668">Usages: lines [34]</text><path d="M570.936,447.573 L570.936,472.5217 L621.5542,472.5217 L621.5542,457.573 L611.5542,447.573 L570.936,447.573 " fill="#CCCCFF" style="stroke:#000080;stroke-width:0.5;"/><path d="M611.5542,447.573 L611.5542,457.573 L621.5542,457.573 L611.5542,447.573 " fill="#CCCCFF" style="stroke:#000080;stroke-width:0.5;"/><text fill="#0000FF" font-family="arial" font-size="13" font-style="italic" lengthAdjust="spacing" textLength="29.6182" x="576.936" y="464.7668">(l:39)</text><polygon fill="#98FB98" points="482.936,443.1479,560.936,443.1479,550.936,460.0474,560.936,476.9468,482.936,476.9468" style="stroke:#181818;stroke-width:0.5;"/><text fill="#003366" font-family="arial" font-size="12" lengthAdjust="spacing" textLength="48" x="492.936" y="464.4038">DEB-FIN</text><path d="M356.2637,506.9468 L356.2637,531.8955 L480.5972,531.8955 L480.5972,516.9468 L470.5972,506.9468 L356.2637,506.9468 " fill="#CCCCFF" style="stroke:#000080;stroke-width:0.5;"/><path d="M470.5972,506.9468 L470.5972,516.9468 L480.5972,516.9468 L470.5972,506.9468 " fill="#CCCCFF" style="stroke:#000080;stroke-width:0.5;"/><text fill="#0000FF" font-family="arial" font-size="13" lengthAdjust="spacing" textLength="103.3335" x="362.2637" y="524.1406">Usages: lines [36]</text><path d="M563.2749,506.9468 L563.2749,531.8955 L613.8931,531.8955 L613.8931,516.9468 L603.8931,506.9468 L563.2749,506.9468 " fill="#CCCCFF" style="stroke:#000080;stroke-width:0.5;"/><path d="M603.8931,506.9468 L603.8931,516.9468 L613.8931,516.9468 L603.8931,506.9468 " fill="#CCCCFF" style="stroke:#000080;stroke-width:0.5;"/><text fill="#0000FF" font-family="arial" font-size="13" font-style="italic" lengthAdjust="spacing" textLength="29.6182" x="569.2749" y="524.1406">(l:40)</text><polygon fill="#98FB98" points="490.5972,502.5217,553.2749,502.5217,543.2749,519.4211,553.2749,536.3206,490.5972,536.3206" style="stroke:#181818;stroke-width:0.5;"/><text fill="#003366" font-family="arial" font-size="12" lengthAdjust="spacing" textLength="32.6777" x="500.5972" y="523.7776">ASUP</text><ellipse cx="516.936" cy="572.8955" fill="none" rx="11" ry="11" style="stroke:#222222;stroke-width:1;"/><ellipse cx="516.936" cy="572.8955" fill="#E6F7FF" rx="6" ry="6" style="stroke:#222222;stroke-width:1;"/><path d="M344.6006,603.8955 L344.6006,628.8442 L468.9341,628.8442 L468.9341,613.8955 L458.9341,603.8955 L344.6006,603.8955 " fill="#CCCCFF" style="stroke:#000080;stroke-width:0.5;"/><path d="M458.9341,603.8955 L458.9341,613.8955 L468.9341,613.8955 L458.9341,603.8955 " fill="#CCCCFF" style="stroke:#000080;stroke-width:0.5;"/><text fill="#0000FF" font-family="arial" font-size="13" lengthAdjust="spacing" textLength="103.3335" x="350.6006" y="621.0894">Usages: lines [36]</text><path d="M574.938,603.8955 L574.938,628.8442 L625.5562,628.8442 L625.5562,613.8955 L615.5562,603.8955 L574.938,603.8955 " fill="#CCCCFF" style="stroke:#000080;stroke-width:0.5;"/><path d="M615.5562,603.8955 L615.5562,613.8955 L625.5562,613.8955 L615.5562,603.8955 " fill="#CCCCFF" style="stroke:#000080;stroke-width:0.5;"/><text fill="#0000FF" font-family="arial" font-size="13" font-style="italic" lengthAdjust="spacing" textLength="29.6182" x="580.938" y="621.0894">(l:42)</text><polygon fill="#98FB98" points="478.9341,599.4705,564.938,599.4705,554.938,616.3699,564.938,633.2693,478.9341,633.2693" style="stroke:#181818;stroke-width:0.5;"/><text fill="#003366" font-family="arial" font-size="12" lengthAdjust="spacing" textLength="56.0039" x="488.9341" y="620.7263">ASUP-FIN</text><path d="M630.9429,663.2693 L630.9429,671.7437 L610.9429,675.7437 L630.9429,679.7437 L630.9429,688.218 A0,0 0 0 0 630.9429,688.218 L681.561,688.218 A0,0 0 0 0 681.561,688.218 L681.561,673.2693 L671.561,663.2693 L630.9429,663.2693 A0,0 0 0 0 630.9429,663.2693 " fill="#CCCCFF" style="stroke:#000080;stroke-width:0.5;"/><path d="M671.561,663.2693 L671.561,673.2693 L681.561,673.2693 L671.561,663.2693 " fill="#CCCCFF" style="stroke:#000080;stroke-width:0.5;"/><text fill="#0000FF" font-family="arial" font-size="13" font-style="italic" lengthAdjust="spacing" textLength="29.6182" x="636.9429" y="680.4631">(l:43)</text><polygon fill="#98FB98" points="432.9292,658.8442,610.9429,658.8442,600.9429,675.7437,610.9429,692.6431,432.9292,692.6431" style="stroke:#181818;stroke-width:0.5;"/><text fill="#003366" font-family="arial" font-size="12" lengthAdjust="spacing" textLength="148.0137" x="442.9292" y="680.1001">EXIT-GOBACK-PROGRAM</text><path d="M21,711.1687 L21,736.1174 A0,0 0 0 0 21,736.1174 L485.936,736.1174 A0,0 0 0 0 485.936,736.1174 L485.936,729.1687 L505.936,723.6431 L485.936,721.1687 L485.936,721.1687 L475.936,711.1687 L21,711.1687 A0,0 0 0 0 21,711.1687 " fill="#CCCCFF" style="stroke:#000080;stroke-width:0.5;"/><path d="M475.936,711.1687 L475.936,721.1687 L485.936,721.1687 L475.936,711.1687 " fill="#CCCCFF" style="stroke:#000080;stroke-width:0.5;"/><text fill="#0000FF" font-family="arial" font-size="13" lengthAdjust="spacing" textLength="443.936" x="27" y="728.3625">.==========================================================</text><ellipse cx="516.936" cy="723.6431" fill="none" rx="11" ry="11" style="stroke:#222222;stroke-width:1;"/><ellipse cx="516.936" cy="723.6431" fill="#E6F7FF" rx="6" ry="6" style="stroke:#222222;stroke-width:1;"/><path d="M315.5732,756.1174 L315.5732,781.0662 L439.9067,781.0662 L439.9067,766.1174 L429.9067,756.1174 L315.5732,756.1174 " fill="#CCCCFF" style="stroke:#000080;stroke-width:0.5;"/><path d="M429.9067,756.1174 L429.9067,766.1174 L439.9067,766.1174 L429.9067,756.1174 " fill="#CCCCFF" style="stroke:#000080;stroke-width:0.5;"/><text fill="#0000FF" font-family="arial" font-size="13" lengthAdjust="spacing" textLength="103.3335" x="321.5732" y="773.3113">Usages: lines [27]</text><path d="M603.9653,756.1174 L603.9653,781.0662 L654.5835,781.0662 L654.5835,766.1174 L644.5835,756.1174 L603.9653,756.1174 " fill="#CCCCFF" style="stroke:#000080;stroke-width:0.5;"/><path d="M644.5835,756.1174 L644.5835,766.1174 L654.5835,766.1174 L644.5835,756.1174 " fill="#CCCCFF" style="stroke:#000080;stroke-width:0.5;"/><text fill="#0000FF" font-family="arial" font-size="13" font-style="italic" lengthAdjust="spacing" textLength="29.6182" x="609.9653" y="773.3113">(l:46)</text><polygon fill="#98FB98" points="449.9067,751.6924,593.9653,751.6924,583.9653,768.5918,593.9653,785.4912,449.9067,785.4912" style="stroke:#181818;stroke-width:0.5;"/><text fill="#003366" font-family="arial" font-size="12" lengthAdjust="spacing" textLength="114.0586" x="459.9067" y="772.9482">APPEL-SP2000-DEB</text><path d="M721.6362,815.4912 L721.6362,823.9656 L701.6362,827.9656 L721.6362,831.9656 L721.6362,840.4399 A0,0 0 0 0 721.6362,840.4399 L772.2544,840.4399 A0,0 0 0 0 772.2544,840.4399 L772.2544,825.4912 L762.2544,815.4912 L721.6362,815.4912 A0,0 0 0 0 721.6362,815.4912 " fill="#CCCCFF" style="stroke:#000080;stroke-width:0.5;"/><path d="M762.2544,815.4912 L762.2544,825.4912 L772.2544,825.4912 L762.2544,815.4912 " fill="#CCCCFF" style="stroke:#000080;stroke-width:0.5;"/><text fill="#0000FF" font-family="arial" font-size="13" font-style="italic" lengthAdjust="spacing" textLength="29.6182" x="727.6362" y="832.6851">(l:47)</text><rect fill="#FFD700" height="33.7988" style="stroke:#181818;stroke-width:0.5;" width="369.4004" x="332.2358" y="811.0662"/><line style="stroke:#181818;stroke-width:0.5;" x1="337.2358" x2="337.2358" y1="811.0662" y2="844.865"/><line style="stroke:#181818;stroke-width:0.5;" x1="696.6362" x2="696.6362" y1="811.0662" y2="844.865"/><text fill="#003366" font-family="arial" font-size="12" lengthAdjust="spacing" textLength="349.4004" x="342.2358" y="832.322">CALL SP2000(ISP2000, DTFLNK, DTFINP, DTFWRK, DTFCOM)</text><path d="M318.2451,869.29 L318.2451,894.2388 L442.5786,894.2388 L442.5786,879.29 L432.5786,869.29 L318.2451,869.29 " fill="#CCCCFF" style="stroke:#000080;stroke-width:0.5;"/><path d="M432.5786,869.29 L432.5786,879.29 L442.5786,879.29 L432.5786,869.29 " fill="#CCCCFF" style="stroke:#000080;stroke-width:0.5;"/><text fill="#0000FF" font-family="arial" font-size="13" lengthAdjust="spacing" textLength="103.3335" x="324.2451" y="886.4839">Usages: lines [27]</text><path d="M601.2935,869.29 L601.2935,894.2388 L651.9116,894.2388 L651.9116,879.29 L641.9116,869.29 L601.2935,869.29 " fill="#CCCCFF" style="stroke:#000080;stroke-width:0.5;"/><path d="M641.9116,869.29 L641.9116,879.29 L651.9116,879.29 L641.9116,869.29 " fill="#CCCCFF" style="stroke:#000080;stroke-width:0.5;"/><text fill="#0000FF" font-family="arial" font-size="13" font-style="italic" lengthAdjust="spacing" textLength="29.6182" x="607.2935" y="886.4839">(l:48)</text><polygon fill="#98FB98" points="452.5786,864.865,591.2935,864.865,581.2935,881.7644,591.2935,898.6638,452.5786,898.6638" style="stroke:#181818;stroke-width:0.5;"/><text fill="#003366" font-family="arial" font-size="12" lengthAdjust="spacing" textLength="108.7148" x="462.5786" y="886.1208">APPEL-SP2000-FIN</text><path d="M21,922.7644 L21,947.7131 A0,0 0 0 0 21,947.7131 L485.936,947.7131 A0,0 0 0 0 485.936,947.7131 L485.936,940.7644 L505.936,935.2388 L485.936,932.7644 L485.936,932.7644 L475.936,922.7644 L21,922.7644 A0,0 0 0 0 21,922.7644 " fill="#CCCCFF" style="stroke:#000080;stroke-width:0.5;"/><path d="M475.936,922.7644 L475.936,932.7644 L485.936,932.7644 L475.936,922.7644 " fill="#CCCCFF" style="stroke:#000080;stroke-width:0.5;"/><text fill="#0000FF" font-family="arial" font-size="13" lengthAdjust="spacing" textLength="443.936" x="27" y="939.9583">.==========================================================</text><ellipse cx="516.936" cy="935.2388" fill="none" rx="11" ry="11" style="stroke:#222222;stroke-width:1;"/><ellipse cx="516.936" cy="935.2388" fill="#E6F7FF" rx="6" ry="6" style="stroke:#222222;stroke-width:1;"/><ellipse cx="516.936" cy="968.7131" fill="none" rx="11" ry="11" style="stroke:#222222;stroke-width:1;"/><ellipse cx="516.936" cy="968.7131" fill="#E6F7FF" rx="6" ry="6" style="stroke:#222222;stroke-width:1;"/><line style="stroke:#181818;stroke-width:1;" x1="516.936" x2="516.936" y1="148.5068" y2="168.5068"/><polygon fill="#181818" points="512.936,158.5068,516.936,168.5068,520.936,158.5068,516.936,162.5068" style="stroke:#181818;stroke-width:1;"/><line style="stroke:#181818;stroke-width:1;" x1="516.936" x2="516.936" y1="202.3057" y2="222.3057"/><polygon fill="#181818" points="512.936,212.3057,516.936,222.3057,520.936,212.3057,516.936,216.3057" style="stroke:#181818;stroke-width:1;"/><line style="stroke:#181818;stroke-width:1;" x1="368.8679" x2="368.8679" y1="369.3491" y2="389.3491"/><polygon fill="#181818" points="364.8679,379.3491,368.8679,389.3491,372.8679,379.3491,368.8679,383.3491" style="stroke:#181818;stroke-width:1;"/><line style="stroke:#181818;stroke-width:1;" x1="378.8679" x2="368.8679" y1="308.3018" y2="308.3018"/><line style="stroke:#181818;stroke-width:1;" x1="368.8679" x2="368.8679" y1="308.3018" y2="335.5503"/><polygon fill="#181818" points="364.8679,325.5503,368.8679,335.5503,372.8679,325.5503,368.8679,329.5503" style="stroke:#181818;stroke-width:1;"/><line style="stroke:#181818;stroke-width:1;" x1="655.0042" x2="665.0042" y1="308.3018" y2="308.3018"/><line style="stroke:#181818;stroke-width:1;" x1="665.0042" x2="665.0042" y1="308.3018" y2="335.5503"/><polygon fill="#181818" points="661.0042,325.5503,665.0042,335.5503,669.0042,325.5503,665.0042,329.5503" style="stroke:#181818;stroke-width:1;"/><line style="stroke:#181818;stroke-width:1;" x1="665.0042" x2="665.0042" y1="369.3491" y2="428.1479"/><line style="stroke:#181818;stroke-width:1;" x1="665.0042" x2="516.936" y1="428.1479" y2="428.1479"/><line style="stroke:#181818;stroke-width:1;" x1="516.936" x2="516.936" y1="428.1479" y2="443.1479"/><polygon fill="#181818" points="512.936,433.1479,516.936,443.1479,520.936,433.1479,516.936,437.1479" style="stroke:#181818;stroke-width:1;"/><line style="stroke:#181818;stroke-width:1;" x1="516.936" x2="516.936" y1="256.1045" y2="291.0532"/><polygon fill="#181818" points="512.936,281.0532,516.936,291.0532,520.936,281.0532,516.936,285.0532" style="stroke:#181818;stroke-width:1;"/><line style="stroke:#181818;stroke-width:1;" x1="516.936" x2="516.936" y1="476.9468" y2="502.5217"/><polygon fill="#181818" points="512.936,492.5217,516.936,502.5217,520.936,492.5217,516.936,496.5217" style="stroke:#181818;stroke-width:1;"/><line style="stroke:#181818;stroke-width:1;" x1="516.936" x2="516.936" y1="536.3206" y2="561.8955"/><polygon fill="#181818" points="512.936,551.8955,516.936,561.8955,520.936,551.8955,516.936,555.8955" style="stroke:#181818;stroke-width:1;"/><line style="stroke:#181818;stroke-width:1;" x1="516.936" x2="516.936" y1="633.2693" y2="658.8442"/><polygon fill="#181818" points="512.936,648.8442,516.936,658.8442,520.936,648.8442,516.936,652.8442" style="stroke:#181818;stroke-width:1;"/><line style="stroke:#181818;stroke-width:1;" x1="516.936" x2="516.936" y1="692.6431" y2="712.6431"/><polygon fill="#181818" points="512.936,702.6431,516.936,712.6431,520.936,702.6431,516.936,706.6431" style="stroke:#181818;stroke-width:1;"/><line style="stroke:#181818;stroke-width:1;" x1="516.936" x2="516.936" y1="785.4912" y2="811.0662"/><polygon fill="#181818" points="512.936,801.0662,516.936,811.0662,520.936,801.0662,516.936,805.0662" style="stroke:#181818;stroke-width:1;"/><line style="stroke:#181818;stroke-width:1;" x1="516.936" x2="516.936" y1="844.865" y2="864.865"/><polygon fill="#181818" points="512.936,854.865,516.936,864.865,520.936,854.865,516.936,858.865" style="stroke:#181818;stroke-width:1;"/><line style="stroke:#181818;stroke-width:1;" x1="516.936" x2="516.936" y1="898.6638" y2="924.2388"/><polygon fill="#181818" points="512.936,914.2388,516.936,924.2388,520.936,914.2388,516.936,918.2388" style="stroke:#181818;stroke-width:1;"/><line style="stroke:#181818;stroke-width:1;" x1="516.936" x2="516.936" y1="68.6094" y2="114.708"/><polygon fill="#181818" points="512.936,104.708,516.936,114.708,520.936,104.708,516.936,108.708" style="stroke:#181818;stroke-width:1;"/><!--SRC=[jLDhRzem5FrCViML-WMafGa4qZQbJ24aY1QI2DA7j4qe8ovO3JPot4vTnt-VyrZB8wpgf5cA71_VUyxnYTDE-7ECEb8uu_W9y-SU3kSiNCAB1D0DPmzpHXz9PD6OCZYoTUV4ST8ToYB42bJJpiuorA645vYgQfgk5vWRBX6438Un9908XqjAeaoXHCCHmxAolI4cw1MrB5NDq0qLNOmDT4Fd3pJ1Fn7KMsAz5a_86FrH26_GECx7Q5OXuvXZIWggBP-gkkzJLLy5nlbH6K4CwkgX26pTrWinGZdQjvogP9blgQVewG5IIuoiOosjfOZE7fU8y9nuj_PsWJaILMsbk1pYj3626VrEuocdD4wKm9u4TtV70f8IBkAGtZBnqpUHbb9_aIf7gp16SuOGCNfsjorLfEmy3CyNt015gSP6erLJ54cg62FlneQU6THDUGo11yChsJH7eyjBNRRTG6wSbtRhUVUHZyc3OVg-FPGdVaC48Gj1a3kmXJa35sHuefX1ZES4WT7Kpw7TNZ4wGz4ZGvrEgSf9hbB1zr2TJWVET9hQipptHgw3wmNGULqtlX9llBDxyROBdsl05uX0zHabDK6PZdr5JIqKyrZKD93Um754FhO8egn3AphoAFfUrc9tzy-Sbv-9yWw8-WZnSBOGBoXE45G9_OkhrfQ6ERdsiuZ5N1QjkXTj6MVn1Ik8HFX-zygajANN9lClsjADtEzr4ivHOWXrWXBueZM_IIadv1KRjAdTKiwc-XwdliMPSBhQOpxekDdu6Fi6htqt2EI-rpMjAzaVU_snEIgNAEv0RknDwFZYdyUX37V-j78x-ZidRfnidxXFuyYmpE4GSkRg89y_GIzmXkvLDWzSFvjln_dQyaQrNwNonLzxoFR13tNwCTl_9-sCTVqR]--></g></svg>