<svg xmlns="http://www.w3.org/2000/svg" xmlns:xlink="http://www.w3.org/1999/xlink" contentStyleType="text/css" height="271px" preserveAspectRatio="none" style="width:225px;height:271px;background:#FFFFFF;" version="1.1" viewBox="0 0 225 271" width="225px" zoomAndPan="magnify"><defs/><g><ellipse cx="115.1548" cy="20" fill="#222222" rx="10" ry="10" style="stroke:#222222;stroke-width:1;"/><rect fill="none" height="179.7969" style="stroke:#000000;stroke-width:1.5;" width="203.3096" x="11" y="40.5762"/><path d="M209.3096,40.5762 L209.3096,51.1855 L199.3096,61.1855 L11,61.1855 " fill="none" style="stroke:#000000;stroke-width:1.5;"/><text fill="#000000" font-family="sans-serif" font-size="14" lengthAdjust="spacing" textLength="188.3096" x="14" y="56.1094">cobol_tools/TESTXX.cob (1/1)</text><rect fill="#F1F1F1" height="35.0938" rx="12.5" ry="12.5" style="stroke:#181818;stroke-width:0.5;" width="99.0547" x="65.6274" y="78.1855"/><text fill="#000000" font-family="sans-serif" font-size="12" lengthAdjust="spacing" textLength="79.0547" x="75.6274" y="100.6426">lignes 25 -&gt; 50</text><line style="stroke:#181818;stroke-width:1.5;" x1="101.1548" x2="171.8472" y1="133.2793" y2="133.2793"/><rect fill="#F1F1F1" height="35.0938" style="stroke:#181818;stroke-width:0.5;" width="85.3848" x="58.4624" y="153.2793"/><line style="stroke:#181818;stroke-width:0.5;" x1="63.4624" x2="63.4624" y1="153.2793" y2="188.373"/><line style="stroke:#181818;stroke-width:0.5;" x1="138.8472" x2="138.8472" y1="153.2793" y2="188.373"/><text fill="#000000" font-family="sans-serif" font-size="12" lengthAdjust="spacing" textLength="65.3848" x="68.4624" y="175.7363">SP2000.cob</text><line style="stroke:#181818;stroke-width:1.5;" x1="115.1548" x2="171.8472" y1="208.373" y2="208.373"/><ellipse cx="115.1548" cy="250.373" fill="none" rx="10" ry="10" style="stroke:#222222;stroke-width:1.5;"/><line style="stroke:#222222;stroke-width:2.5;" x1="108.9676" x2="121.342" y1="244.1859" y2="256.5602"/><line style="stroke:#222222;stroke-width:2.5;" x1="121.342" x2="108.9676" y1="244.1859" y2="256.5602"/><line style="stroke:#181818;stroke-width:1;" x1="101.1548" x2="101.1548" y1="134.7793" y2="153.2793"/><polygon fill="#181818" points="97.1548,143.2793,101.1548,153.2793,105.1548,143.2793,101.1548,147.2793" style="stroke:#181818;stroke-width:1;"/><line style="stroke:#181818;stroke-width:1;" x1="171.8472" x2="171.8472" y1="134.7793" y2="208.373"/><polygon fill="#181818" points="167.8472,198.373,171.8472,208.373,175.8472,198.373,171.8472,202.373" style="stroke:#181818;stroke-width:1;"/><line style="stroke:#181818;stroke-width:1;" x1="115.1548" x2="115.1548" y1="113.2793" y2="133.2793"/><polygon fill="#181818" points="111.1548,123.2793,115.1548,133.2793,119.1548,123.2793,115.1548,127.2793" style="stroke:#181818;stroke-width:1;"/><line style="stroke:#181818;stroke-width:1;" x1="115.1548" x2="115.1548" y1="30" y2="78.1855"/><polygon fill="#181818" points="111.1548,68.1855,115.1548,78.1855,119.1548,68.1855,115.1548,72.1855" style="stroke:#181818;stroke-width:1;"/><line style="stroke:#181818;stroke-width:1;" x1="115.1548" x2="115.1548" y1="209.873" y2="240.373"/><polygon fill="#181818" points="111.1548,230.373,115.1548,240.373,119.1548,230.373,115.1548,234.373" style="stroke:#181818;stroke-width:1;"/><!--SRC=[Aov9B2hXAW0IcIMP-NaAoVb9-Jdn9VdvESNw8Qx18H4HUa0X1Gr3VKFDQYuk1JYmoibCpqijLZ0oLT2rKp0ri8RBSHONv6IMA71nMWK761aO680CgE7YJ4ajIKpEu8BA9gOdPkPnSQRcfIY01RXgkRY07000]--></g></svg>